<svg width="16" height="16" viewBox="0 0 16 16" fill="none" xmlns="http://www.w3.org/2000/svg">
<g clip-path="url(#clip0_370_7523)">
<rect width="16" height="16" rx="8" fill="#2E2E48"/>
<path d="M10.9157 11.3333C7.36086 11.3384 4.66295 8.60814 4.66675 5.0844C4.66675 4.85428 4.8533 4.66669 5.08342 4.66669H6.18315C6.38964 4.66669 6.56505 4.81841 6.59537 5.02266C6.66804 5.51219 6.81057 5.98876 7.01862 6.43781L7.06143 6.53023C7.12097 6.65873 7.08061 6.81141 6.96536 6.89372C6.62479 7.13693 6.49463 7.6265 6.75995 8.0085C7.09291 8.48787 7.5126 8.90748 7.99186 9.24028C8.37384 9.50553 8.86333 9.37539 9.10654 9.03487C9.1889 8.91956 9.34167 8.87919 9.47025 8.93875L9.56224 8.98136C10.0113 9.18939 10.4879 9.33193 10.9775 9.40458C11.1818 9.4349 11.3334 9.6103 11.3334 9.8168V10.9167C11.3334 11.1468 11.1464 11.3333 10.9163 11.3333L10.9157 11.3333Z" fill="#E2E6EE"/>
</g>
<defs>
<clipPath id="clip0_370_7523">
<rect width="16" height="16" rx="8" fill="white"/>
</clipPath>
</defs>
</svg>
