<svg width="16" height="16" viewBox="0 0 16 16" fill="none" xmlns="http://www.w3.org/2000/svg">
<g clip-path="url(#clip0_370_7531)">
<rect width="16" height="16" rx="8" fill="#2E2E48"/>
<path d="M7.99992 11.75C7.47364 11.3011 6.98583 10.809 6.54159 10.2788C5.87492 9.48252 5.08325 8.29669 5.08325 7.16669C5.08266 5.9865 5.79336 4.92227 6.8837 4.4706C7.97404 4.01894 9.22911 4.26887 10.0633 5.10377C10.6118 5.64986 10.9191 6.39268 10.9166 7.16669C10.9166 8.29669 10.1249 9.48252 9.45825 10.2788C9.01401 10.809 8.5262 11.3011 7.99992 11.75ZM7.99992 5.91669C7.55334 5.91669 7.14068 6.15494 6.91739 6.54169C6.6941 6.92844 6.6941 7.40494 6.91739 7.79169C7.14068 8.17844 7.55334 8.41669 7.99992 8.41669C8.69028 8.41669 9.24992 7.85704 9.24992 7.16669C9.24992 6.47633 8.69028 5.91669 7.99992 5.91669Z" fill="#D9DFE8"/>
</g>
<defs>
<clipPath id="clip0_370_7531">
<rect width="16" height="16" rx="8" fill="white"/>
</clipPath>
</defs>
</svg>
