<svg width="152" height="92" viewBox="0 0 152 92" fill="none" xmlns="http://www.w3.org/2000/svg">
<rect width="152" height="92" fill="#FAFAFA"/>
<path fill-rule="evenodd" clip-rule="evenodd" d="M152 81V61H119L152 81Z" fill="#012169"/>
<path fill-rule="evenodd" clip-rule="evenodd" d="M112 61L152 85L152 92L100 61H112Z" fill="#C8102E"/>
<path fill-rule="evenodd" clip-rule="evenodd" d="M91 92H134L91 66V92Z" fill="#012169"/>
<path fill-rule="evenodd" clip-rule="evenodd" d="M61 92H19L61 66L61 92Z" fill="#012169"/>
<path fill-rule="evenodd" clip-rule="evenodd" d="M61 61L11.4 92L0 92L50.6 61H61Z" fill="#C8102E"/>
<path fill-rule="evenodd" clip-rule="evenodd" d="M0 81V61H33L0 81Z" fill="#012169"/>
<rect y="37" width="152" height="18" fill="#C8102E"/>
<rect x="67" width="18" height="92" fill="#C8102E"/>
<path fill-rule="evenodd" clip-rule="evenodd" d="M152 11V31H119L152 11Z" fill="#012169"/>
<path fill-rule="evenodd" clip-rule="evenodd" d="M91 31L140.6 0L152 0L101.4 31H91Z" fill="#C8102E"/>
<path fill-rule="evenodd" clip-rule="evenodd" d="M91 0H133L91 26L91 0Z" fill="#012169"/>
<path fill-rule="evenodd" clip-rule="evenodd" d="M61 0H18L61 26V0Z" fill="#012169"/>
<path fill-rule="evenodd" clip-rule="evenodd" d="M40 31L0 7L0 0L52 31H40Z" fill="#C8102E"/>
<path fill-rule="evenodd" clip-rule="evenodd" d="M0 11V31H33L0 11Z" fill="#012169"/>
</svg>
